# xmcd
#
# Track frame offsets:
#	150
#	14277
#	30892
#	48040
#	61496
#	76750
#	91556
#	106269
#	122475
#
# Disc length: 1873 seconds
# Revision: 0
# Processed by: cddbd v1.5.2PL0 Copyright (c) Steve Scherf et al.
# Submitted via: dBpowerAMP V12.0
#
DISCID=52074f09
DTITLE=Danni Nicholls - The Vintage TV Recordings
DYEAR=2017
DGENRE=Americana
TTITLE0=Long Road Home
TTITLE1=Leaving Tennessee
TTITLE2=Beautiful Game
TTITLE3=Hey There, Sunshine
TTITLE4=Beautifully Broken
TTITLE5=Between Forever and Goodbye
TTITLE6=Where the Blue Train Goes
TTITLE7=Let Somebody Love You
TTITLE8=A Little Redemption
EXTD=
EXTT0=
EXTT1=
EXTT2=
EXTT3=
EXTT4=
EXTT5=
EXTT6=
EXTT7=
EXTT8=
PLAYORDER=
